<svg width="26" height="26" viewBox="0 0 26 26" fill="none" xmlns="http://www.w3.org/2000/svg">
<path d="M13.091 11.5221H25.1342C25.267 12.2491 25.3335 12.9436 25.3335 13.6055C25.3335 15.9601 24.8296 18.0624 23.8219 19.9124C22.8141 21.7625 21.3772 23.2083 19.5112 24.25C17.6452 25.2917 15.5051 25.8125 13.091 25.8125C11.3523 25.8125 9.69673 25.4843 8.12419 24.8278C6.55166 24.1713 5.19507 23.2843 4.05443 22.1667C2.91378 21.049 2.00847 19.7198 1.33848 18.179C0.668491 16.6382 0.333496 15.0161 0.333496 13.3125C0.333496 11.6089 0.668491 9.98676 1.33848 8.44596C2.00847 6.90516 2.91378 5.57595 4.05443 4.45833C5.19507 3.34071 6.55166 2.45367 8.12419 1.7972C9.69673 1.14073 11.3523 0.8125 13.091 0.8125C16.4132 0.8125 19.2648 1.90299 21.6458 4.08398L18.174 7.35547C16.8119 6.06424 15.1175 5.41862 13.091 5.41862C11.6624 5.41862 10.3418 5.77127 9.12918 6.47656C7.91655 7.18186 6.95587 8.13943 6.24712 9.34928C5.53837 10.5591 5.18399 11.8802 5.18399 13.3125C5.18399 14.7448 5.53837 16.0659 6.24712 17.2757C6.95587 18.4856 7.91655 19.4431 9.12918 20.1484C10.3418 20.8537 11.6624 21.2064 13.091 21.2064C14.0544 21.2064 14.9404 21.0762 15.7488 20.8158C16.5572 20.5553 17.2216 20.2298 17.7421 19.8392C18.2626 19.4486 18.7167 19.0037 19.1043 18.5046C19.4919 18.0054 19.777 17.5334 19.9597 17.0885C20.1425 16.6437 20.267 16.2205 20.3335 15.819H13.091V11.5221Z" fill="black"/>
</svg>
