<svg width="50" height="50" viewBox="0 0 50 50" fill="none" xmlns="http://www.w3.org/2000/svg">
<path d="M31.125 10.8123C31.9126 9.90459 32.5131 8.85019 32.8921 7.70971C33.2711 6.56922 33.421 5.3651 33.3333 4.1665C30.9154 4.36169 28.6708 5.49891 27.0833 7.33317C26.3231 8.21229 25.747 9.235 25.3892 10.3408C25.0313 11.4465 24.899 12.6128 25 13.7707C26.1795 13.7805 27.3454 13.5188 28.4075 13.0058C29.4696 12.4928 30.3994 11.7423 31.125 10.8123ZM36.375 26.3123C36.389 24.716 36.8095 23.1495 37.5968 21.7607C38.3841 20.3719 39.5124 19.2066 40.875 18.3748C40.015 17.1358 38.8782 16.1141 37.5547 15.3908C36.2311 14.6676 34.7573 14.2627 33.25 14.2082C30 13.8748 27 16.104 25.2708 16.104C23.5417 16.104 21.1042 14.2498 18.3958 14.2915C16.6253 14.3498 14.9 14.866 13.3884 15.7898C11.8768 16.7136 10.6304 18.0133 9.77083 19.5623C6.10417 25.9373 8.83333 35.4165 12.5 40.5623C14.1667 43.0832 16.25 45.9373 19 45.8332C21.75 45.729 22.6458 44.1248 25.8333 44.1248C29.0208 44.1248 30 45.8332 32.7083 45.7707C35.4167 45.7082 37.3333 43.1873 39.0833 40.6665C40.323 38.8364 41.2914 36.8365 41.9583 34.729C40.3072 34.0249 38.8986 32.8525 37.9063 31.3567C36.9141 29.861 36.3817 28.1073 36.375 26.3123Z" fill="black"/>
</svg>
