<svg width="25" height="25" viewBox="0 0 25 25" fill="none" xmlns="http://www.w3.org/2000/svg">
<path d="M15.5626 5.40641C15.9564 4.95254 16.2567 4.42534 16.4462 3.8551C16.6357 3.28485 16.7106 2.6828 16.6668 2.0835C15.4578 2.18109 14.3355 2.7497 13.5418 3.66683C13.1617 4.10639 12.8736 4.61775 12.6947 5.17063C12.5158 5.72351 12.4496 6.30667 12.5001 6.88558C13.0899 6.89049 13.6728 6.75964 14.2039 6.50314C14.7349 6.24664 15.1998 5.87139 15.5626 5.40641ZM18.1876 13.1564C18.1946 12.3582 18.4049 11.575 18.7985 10.8806C19.1922 10.1862 19.7563 9.60356 20.4376 9.18766C20.0076 8.56812 19.4392 8.05728 18.7775 7.69566C18.1157 7.33403 17.3788 7.13157 16.6251 7.10433C15.0001 6.93766 13.5001 8.05225 12.6355 8.05225C11.771 8.05225 10.5522 7.12516 9.19804 7.146C8.31276 7.17516 7.45014 7.43327 6.69434 7.89515C5.93853 8.35703 5.31534 9.00691 4.88554 9.78141C3.0522 12.9689 4.41679 17.7085 6.25012 20.2814C7.08345 21.5418 8.12512 22.9689 9.50012 22.9168C10.8751 22.8647 11.323 22.0627 12.9168 22.0627C14.5105 22.0627 15.0001 22.9168 16.3543 22.8856C17.7085 22.8543 18.6668 21.5939 19.5418 20.3335C20.1616 19.4184 20.6458 18.4185 20.9793 17.3647C20.1537 17.0127 19.4494 16.4265 18.9533 15.6786C18.4572 14.9307 18.191 14.0539 18.1876 13.1564Z" fill="black"/>
</svg>
