<svg width="25" height="25" viewBox="0 0 25 25" fill="none" xmlns="http://www.w3.org/2000/svg">
<path d="M21.3228 2.08315H3.677C3.47865 2.0804 3.28169 2.11674 3.09738 2.19012C2.91308 2.26349 2.74503 2.37245 2.60283 2.51077C2.46064 2.64909 2.34709 2.81407 2.26866 2.99629C2.19023 3.1785 2.14847 3.37438 2.14575 3.57274V21.4269C2.14847 21.6253 2.19023 21.8211 2.26866 22.0034C2.34709 22.1856 2.46064 22.3505 2.60283 22.4889C2.74503 22.6272 2.91308 22.7362 3.09738 22.8095C3.28169 22.8829 3.47865 22.9192 3.677 22.9165H21.3228C21.5212 22.9192 21.7181 22.8829 21.9025 22.8095C22.0868 22.7362 22.2548 22.6272 22.397 22.4889C22.5392 22.3505 22.6528 22.1856 22.7312 22.0034C22.8096 21.8211 22.8514 21.6253 22.8541 21.4269V3.57274C22.8514 3.37438 22.8096 3.1785 22.7312 2.99629C22.6528 2.81407 22.5392 2.64909 22.397 2.51077C22.2548 2.37245 22.0868 2.26349 21.9025 2.19012C21.7181 2.11674 21.5212 2.0804 21.3228 2.08315ZM8.427 19.5207H5.302V10.1457H8.427V19.5207ZM6.8645 8.83315C6.43353 8.83315 6.0202 8.66195 5.71545 8.3572C5.41071 8.05245 5.2395 7.63913 5.2395 7.20815C5.2395 6.77718 5.41071 6.36385 5.71545 6.0591C6.0202 5.75436 6.43353 5.58315 6.8645 5.58315C7.09335 5.5572 7.3251 5.57988 7.54458 5.6497C7.76406 5.71952 7.96631 5.83491 8.1381 5.98832C8.30989 6.14173 8.44734 6.32969 8.54145 6.53991C8.63556 6.75012 8.68421 6.97784 8.68421 7.20815C8.68421 7.43847 8.63556 7.66619 8.54145 7.8764C8.44734 8.08661 8.30989 8.27458 8.1381 8.42799C7.96631 8.58139 7.76406 8.69679 7.54458 8.76661C7.3251 8.83643 7.09335 8.85911 6.8645 8.83315ZM19.6978 19.5207H16.5728V14.4894C16.5728 13.229 16.1249 12.4061 14.9895 12.4061C14.6381 12.4086 14.2959 12.5189 14.0091 12.7219C13.7223 12.9249 13.5046 13.2109 13.3853 13.5415C13.3038 13.7863 13.2685 14.0442 13.2812 14.3019V19.5102H10.1562C10.1562 19.5102 10.1562 10.9894 10.1562 10.1352H13.2812V11.4582C13.5651 10.9656 13.9779 10.5597 14.4754 10.2844C14.9728 10.0091 15.5359 9.87467 16.1041 9.89565C18.1874 9.89565 19.6978 11.2394 19.6978 14.1248V19.5207Z" fill="black"/>
</svg>
