<svg width="453" height="269" viewBox="0 0 453 269" fill="none" xmlns="http://www.w3.org/2000/svg">
<path d="M10.422 10.95H2.94203C1.9887 10.95 1.3837 10.8217 1.12703 10.565C0.870365 10.3083 0.742031 9.70333 0.742031 8.75V2.92C0.742031 1.85666 0.907031 1.19666 1.23703 0.939994C1.6037 0.64666 2.30036 0.499993 3.32703 0.499993H43.147C48.1337 0.499993 52.6437 0.994995 56.677 1.985C60.7104 2.93833 64.1754 4.405 67.072 6.385C70.0054 8.365 72.242 10.8767 73.782 13.92C75.3587 16.9633 76.147 20.5567 76.147 24.7C76.147 28.8067 75.3587 32.4183 73.782 35.535C72.242 38.6517 70.0054 41.2367 67.072 43.29C64.1754 45.3433 60.7104 46.8833 56.677 47.91C52.6437 48.9367 48.1337 49.45 43.147 49.45H34.017C32.6604 49.45 31.817 49.615 31.487 49.945C31.1937 50.275 31.047 51.1 31.047 52.42V69.47C31.047 70.8267 31.212 71.6883 31.542 72.055C31.872 72.385 32.7154 72.55 34.072 72.55H42.157C43.147 72.55 43.7337 72.715 43.917 73.045C44.137 73.3383 44.247 73.9983 44.247 75.025V80.14C44.247 81.3133 44.137 82.0833 43.917 82.45C43.697 82.8167 43.0004 83 41.827 83H3.54703C2.44703 83 1.69536 82.8717 1.29203 82.615C0.925365 82.3583 0.742031 81.6433 0.742031 80.47V74.695C0.742031 73.7783 0.870365 73.1917 1.12703 72.935C1.3837 72.6783 1.97036 72.55 2.88703 72.55H9.98203C11.3387 72.55 12.1454 72.3483 12.402 71.945C12.6954 71.5417 12.842 70.7167 12.842 69.47V12.985C12.842 12.0317 12.677 11.4633 12.347 11.28C12.0537 11.06 11.412 10.95 10.422 10.95ZM33.577 39H42.047C46.4837 39 49.967 37.6983 52.497 35.095C55.027 32.4917 56.292 29.0267 56.292 24.7C56.292 20.3367 55.027 16.9633 52.497 14.58C49.967 12.16 46.4837 10.95 42.047 10.95H32.807C32.0004 10.95 31.5054 11.1333 31.322 11.5C31.1387 11.83 31.047 12.4167 31.047 13.26V36.58C31.047 37.6433 31.1937 38.3217 31.487 38.615C31.7804 38.8717 32.477 39 33.577 39ZM92.8799 36.855C92.8799 35.9383 92.7699 35.3333 92.5499 35.04C92.3666 34.7467 91.8349 34.6 90.9549 34.6H84.7949C83.9883 34.6 83.4749 34.49 83.2549 34.27C83.0716 34.0133 82.9799 33.5 82.9799 32.73V27.89C82.9799 27.0467 83.1083 26.4967 83.3649 26.24C83.6216 25.9467 84.1349 25.8 84.9049 25.8H106.465C107.125 25.8 107.602 25.91 107.895 26.13C108.188 26.3133 108.335 26.7717 108.335 27.505V32.565C108.335 33.6283 108.408 34.27 108.555 34.49C108.702 34.71 108.995 34.4167 109.435 33.61C110.975 30.8967 113.083 28.6417 115.76 26.845C118.473 25.0483 121.957 24.15 126.21 24.15C130.317 24.15 133.818 25.25 136.715 27.45C139.648 29.6133 141.115 32.6933 141.115 36.69C141.115 38.4133 140.73 40.1367 139.96 41.86C139.19 43.5467 138.053 44.9583 136.55 46.095C135.047 47.2317 133.195 47.8 130.995 47.8C128.282 47.8 126.027 47.1033 124.23 45.71C122.433 44.3167 121.535 42.5017 121.535 40.265C121.535 38.7617 121.773 37.5883 122.25 36.745C122.727 35.9017 123.203 35.2417 123.68 34.765C124.193 34.2883 124.45 33.83 124.45 33.39C124.45 32.9867 124.267 32.6567 123.9 32.4C123.57 32.1433 122.928 32.015 121.975 32.015C119.848 32.015 117.813 32.9867 115.87 34.93C113.963 36.8367 112.405 39.385 111.195 42.575C110.022 45.7283 109.435 49.1933 109.435 52.97V72.11C109.435 72.9533 109.545 73.5217 109.765 73.815C109.985 74.0717 110.535 74.2 111.415 74.2H117.85C118.547 74.2 118.968 74.3283 119.115 74.585C119.262 74.8417 119.335 75.3183 119.335 76.015V81.02C119.335 81.79 119.243 82.3217 119.06 82.615C118.913 82.8717 118.473 83 117.74 83H84.9599C84.2633 83 83.7499 82.89 83.4199 82.67C83.1266 82.45 82.9799 81.9917 82.9799 81.295V75.795C82.9799 75.0617 83.1083 74.6217 83.3649 74.475C83.6583 74.2917 84.1349 74.2 84.7949 74.2H90.4599C91.3766 74.2 91.9999 74.09 92.3299 73.87C92.6966 73.65 92.8799 73.1 92.8799 72.22V36.855ZM163.922 53.3C163.922 57.48 164.234 61.3483 164.857 64.905C165.48 68.425 166.617 71.2667 168.267 73.43C169.917 75.5933 172.282 76.675 175.362 76.675C177.672 76.675 179.56 76.07 181.027 74.86C182.53 73.6133 183.704 71.9817 184.547 69.965C185.39 67.9117 185.977 65.6383 186.307 63.145C186.637 60.615 186.802 58.0667 186.802 55.5C186.802 51.32 186.49 47.47 185.867 43.95C185.244 40.3933 184.107 37.5333 182.457 35.37C180.807 33.2067 178.442 32.125 175.362 32.125C173.052 32.125 171.145 32.7483 169.642 33.995C168.175 35.205 167.02 36.8367 166.177 38.89C165.334 40.9067 164.747 43.18 164.417 45.71C164.087 48.2033 163.922 50.7333 163.922 53.3ZM145.772 55.775C145.772 49.9083 146.89 44.5917 149.127 39.825C151.364 35.0217 154.682 31.2083 159.082 28.385C163.482 25.5617 168.909 24.15 175.362 24.15C181.815 24.15 187.242 25.5067 191.642 28.22C196.042 30.9333 199.36 34.5083 201.597 38.945C203.834 43.3817 204.952 48.1667 204.952 53.3C204.952 59.1667 203.834 64.465 201.597 69.195C199.36 73.925 196.042 77.6833 191.642 80.47C187.242 83.2567 181.815 84.65 175.362 84.65C168.909 84.65 163.482 83.33 159.082 80.69C154.682 78.0133 151.364 74.475 149.127 70.075C146.89 65.675 145.772 60.9083 145.772 55.775ZM212.696 54.95C212.696 50.8067 213.356 46.9017 214.676 43.235C216.032 39.5317 218.031 36.25 220.671 33.39C223.311 30.4933 226.574 28.2383 230.461 26.625C234.347 24.975 238.839 24.15 243.936 24.15C249.142 24.15 253.616 24.9567 257.356 26.57C261.132 28.1833 264.011 30.3283 265.991 33.005C268.007 35.645 269.016 38.505 269.016 41.585C269.016 45.0683 267.971 47.6717 265.881 49.395C263.827 51.0817 261.444 51.925 258.731 51.925C255.907 51.925 253.597 51.1367 251.801 49.56C250.041 47.9833 249.161 45.9117 249.161 43.345C249.161 41.7683 249.491 40.5583 250.151 39.715C250.811 38.835 251.471 38.1017 252.131 37.515C252.827 36.9283 253.176 36.2683 253.176 35.535C253.176 34.435 252.479 33.5367 251.086 32.84C249.692 32.1067 247.859 31.74 245.586 31.74C242.396 31.74 239.737 32.7117 237.611 34.655C235.484 36.5983 233.871 39.2383 232.771 42.575C231.707 45.9117 231.176 49.67 231.176 53.85C231.176 57.6633 231.561 61.275 232.331 64.685C233.137 68.095 234.457 70.8817 236.291 73.045C238.161 75.2083 240.727 76.29 243.991 76.29C247.547 76.29 250.462 75.3 252.736 73.32C255.009 71.34 256.824 68.6267 258.181 65.18C258.401 64.74 258.639 64.4283 258.896 64.245C259.189 64.0617 259.666 63.97 260.326 63.97H267.421C268.191 63.97 268.649 64.0617 268.796 64.245C268.979 64.3917 268.979 64.7583 268.796 65.345C267.659 69.4883 265.881 73.0083 263.461 75.905C261.077 78.765 258.126 80.9467 254.606 82.45C251.122 83.9167 247.144 84.65 242.671 84.65C235.851 84.65 230.222 83.2933 225.786 80.58C221.349 77.83 218.049 74.2 215.886 69.69C213.759 65.18 212.696 60.2667 212.696 54.95ZM276.827 55.5C276.827 49.6333 277.927 44.335 280.127 39.605C282.363 34.875 285.7 31.1167 290.137 28.33C294.61 25.5433 300.165 24.15 306.802 24.15C311.238 24.15 315.015 24.7917 318.132 26.075C321.248 27.3583 323.797 29.0817 325.777 31.245C327.793 33.3717 329.37 35.755 330.507 38.395C331.643 41.035 332.432 43.7483 332.872 46.535C333.312 49.285 333.532 51.9067 333.532 54.4C333.532 55.17 333.403 55.665 333.147 55.885C332.927 56.105 332.413 56.215 331.607 56.215H296.187C295.49 56.215 295.05 56.325 294.867 56.545C294.683 56.765 294.61 57.205 294.647 57.865C294.757 61.165 295.233 64.2267 296.077 67.05C296.957 69.8367 298.35 72.0733 300.257 73.76C302.163 75.4467 304.712 76.29 307.902 76.29C311.458 76.29 314.373 75.3183 316.647 73.375C318.957 71.4317 320.808 68.7367 322.202 65.29C322.348 64.8867 322.513 64.575 322.697 64.355C322.917 64.0983 323.338 63.97 323.962 63.97H331.387C332.047 63.97 332.45 64.0617 332.597 64.245C332.78 64.3917 332.817 64.74 332.707 65.29C331.643 69.47 329.902 73.0083 327.482 75.905C325.062 78.765 322.037 80.9467 318.407 82.45C314.813 83.9167 310.688 84.65 306.032 84.65C299.578 84.65 294.17 83.2933 289.807 80.58C285.48 77.8667 282.235 74.2917 280.072 69.855C277.908 65.4183 276.827 60.6333 276.827 55.5ZM296.352 48.185H314.997C315.73 48.185 316.17 48.13 316.317 48.02C316.463 47.8733 316.518 47.525 316.482 46.975C316.445 45.325 316.225 43.62 315.822 41.86C315.418 40.1 314.813 38.4867 314.007 37.02C313.2 35.5167 312.173 34.3067 310.927 33.39C309.68 32.4733 308.195 32.015 306.472 32.015C303.905 32.015 301.778 32.7117 300.092 34.105C298.442 35.4983 297.195 37.295 296.352 39.495C295.508 41.6583 295.013 43.9867 294.867 46.48C294.83 47.14 294.867 47.5983 294.977 47.855C295.087 48.075 295.545 48.185 296.352 48.185ZM382.14 43.95C380.6 39.9533 378.326 36.965 375.32 34.985C372.313 33.005 369.215 32.015 366.025 32.015C363.678 32.015 361.881 32.565 360.635 33.665C359.425 34.765 358.82 36.14 358.82 37.79C358.82 39.88 359.645 41.5483 361.295 42.795C362.981 44.0417 365.145 45.0867 367.785 45.93C370.425 46.7367 373.211 47.58 376.145 48.46C379.115 49.34 381.901 50.4583 384.505 51.815C387.145 53.135 389.29 54.9317 390.94 57.205C392.626 59.4417 393.47 62.375 393.47 66.005C393.47 70.3683 392.461 73.9433 390.445 76.73C388.465 79.5167 385.751 81.57 382.305 82.89C378.858 84.21 374.99 84.87 370.7 84.87C367.07 84.87 363.861 84.32 361.075 83.22C358.288 82.12 355.996 80.855 354.2 79.425C353.723 79.0217 353.338 78.8383 353.045 78.875C352.751 78.875 352.458 79.1683 352.165 79.755L350.68 82.835C350.46 83.275 350.203 83.5867 349.91 83.77C349.653 83.99 349.176 84.1 348.48 84.1H343.145C342.558 84.1 342.173 83.9717 341.99 83.715C341.843 83.495 341.77 83.0733 341.77 82.45V64.08C341.77 63.42 341.843 62.9617 341.99 62.705C342.173 62.4483 342.576 62.32 343.2 62.32H349.03C349.836 62.32 350.331 62.43 350.515 62.65C350.698 62.8333 350.9 63.2183 351.12 63.805C352.036 66.665 353.338 69.0483 355.025 70.955C356.748 72.8617 358.746 74.2917 361.02 75.245C363.33 76.1983 365.823 76.675 368.5 76.675C371.543 76.675 373.835 76.0517 375.375 74.805C376.951 73.5217 377.74 71.835 377.74 69.745C377.74 67.5817 376.915 65.895 375.265 64.685C373.615 63.4383 371.488 62.4117 368.885 61.605C366.318 60.7617 363.586 59.9183 360.69 59.075C357.793 58.195 355.043 57.0767 352.44 55.72C349.873 54.3633 347.765 52.5483 346.115 50.275C344.465 47.965 343.64 44.94 343.64 41.2C343.64 37.57 344.483 34.4717 346.17 31.905C347.856 29.3017 350.166 27.3217 353.1 25.965C356.07 24.6083 359.425 23.93 363.165 23.93C366.905 23.93 370.131 24.5167 372.845 25.69C375.595 26.8267 377.758 28.0917 379.335 29.485C379.885 29.9617 380.27 30.2367 380.49 30.31C380.71 30.3467 380.985 29.9617 381.315 29.155L382.69 25.965C382.946 25.4517 383.203 25.1217 383.46 24.975C383.716 24.7917 384.211 24.7 384.945 24.7H390.115C391.031 24.7 391.49 25.195 391.49 26.185V44.06C391.49 44.6467 391.398 45.05 391.215 45.27C391.068 45.49 390.683 45.6 390.06 45.6H384.23C383.386 45.6 382.873 45.4717 382.69 45.215C382.543 44.9217 382.36 44.5 382.14 43.95ZM441.651 43.95C440.111 39.9533 437.838 36.965 434.831 34.985C431.825 33.005 428.726 32.015 425.536 32.015C423.19 32.015 421.393 32.565 420.146 33.665C418.936 34.765 418.331 36.14 418.331 37.79C418.331 39.88 419.156 41.5483 420.806 42.795C422.493 44.0417 424.656 45.0867 427.296 45.93C429.936 46.7367 432.723 47.58 435.656 48.46C438.626 49.34 441.413 50.4583 444.016 51.815C446.656 53.135 448.801 54.9317 450.451 57.205C452.138 59.4417 452.981 62.375 452.981 66.005C452.981 70.3683 451.973 73.9433 449.956 76.73C447.976 79.5167 445.263 81.57 441.816 82.89C438.37 84.21 434.501 84.87 430.211 84.87C426.581 84.87 423.373 84.32 420.586 83.22C417.8 82.12 415.508 80.855 413.711 79.425C413.235 79.0217 412.85 78.8383 412.556 78.875C412.263 78.875 411.97 79.1683 411.676 79.755L410.191 82.835C409.971 83.275 409.715 83.5867 409.421 83.77C409.165 83.99 408.688 84.1 407.991 84.1H402.656C402.07 84.1 401.685 83.9717 401.501 83.715C401.355 83.495 401.281 83.0733 401.281 82.45V64.08C401.281 63.42 401.355 62.9617 401.501 62.705C401.685 62.4483 402.088 62.32 402.711 62.32H408.541C409.348 62.32 409.843 62.43 410.026 62.65C410.21 62.8333 410.411 63.2183 410.631 63.805C411.548 66.665 412.85 69.0483 414.536 70.955C416.26 72.8617 418.258 74.2917 420.531 75.245C422.841 76.1983 425.335 76.675 428.011 76.675C431.055 76.675 433.346 76.0517 434.886 74.805C436.463 73.5217 437.251 71.835 437.251 69.745C437.251 67.5817 436.426 65.895 434.776 64.685C433.126 63.4383 431 62.4117 428.396 61.605C425.83 60.7617 423.098 59.9183 420.201 59.075C417.305 58.195 414.555 57.0767 411.951 55.72C409.385 54.3633 407.276 52.5483 405.626 50.275C403.976 47.965 403.151 44.94 403.151 41.2C403.151 37.57 403.995 34.4717 405.681 31.905C407.368 29.3017 409.678 27.3217 412.611 25.965C415.581 24.6083 418.936 23.93 422.676 23.93C426.416 23.93 429.643 24.5167 432.356 25.69C435.106 26.8267 437.27 28.0917 438.846 29.485C439.396 29.9617 439.781 30.2367 440.001 30.31C440.221 30.3467 440.496 29.9617 440.826 29.155L442.201 25.965C442.458 25.4517 442.715 25.1217 442.971 24.975C443.228 24.7917 443.723 24.7 444.456 24.7H449.626C450.543 24.7 451.001 25.195 451.001 26.185V44.06C451.001 44.6467 450.91 45.05 450.726 45.27C450.58 45.49 450.195 45.6 449.571 45.6H443.741C442.898 45.6 442.385 45.4717 442.201 45.215C442.055 44.9217 441.871 44.5 441.651 43.95Z" fill="#F2DA5E"/>
<path d="M139.79 248.52L162.67 192.915C163.073 191.888 163.091 191.247 162.725 190.99C162.395 190.697 161.46 190.55 159.92 190.55H152.11C151.34 190.55 150.826 190.458 150.57 190.275C150.313 190.092 150.185 189.633 150.185 188.9V186.205C150.185 185.508 150.276 185.05 150.46 184.83C150.68 184.61 151.12 184.5 151.78 184.5H179.39C180.16 184.5 180.618 184.647 180.765 184.94C180.911 185.233 180.985 185.765 180.985 186.535V188.57C180.985 189.267 180.911 189.78 180.765 190.11C180.655 190.403 180.233 190.55 179.5 190.55H172.185C170.975 190.55 170.168 190.752 169.765 191.155C169.398 191.522 169.05 192.108 168.72 192.915L138.415 266.45C138.268 266.853 138.085 267.22 137.865 267.55C137.681 267.917 137.425 268.192 137.095 268.375C136.765 268.558 136.27 268.65 135.61 268.65H133.96C132.86 268.65 132.09 268.485 131.65 268.155C131.246 267.825 130.898 267.293 130.605 266.56L99.5298 192.255C99.2364 191.522 98.9614 191.063 98.7048 190.88C98.4848 190.66 97.8248 190.55 96.7248 190.55H88.1448C87.3381 190.55 86.8431 190.403 86.6598 190.11C86.4764 189.817 86.3848 189.248 86.3848 188.405V186.645C86.3848 185.728 86.5131 185.142 86.7698 184.885C87.0264 184.628 87.5948 184.5 88.4748 184.5H120.595C121.621 184.5 122.226 184.665 122.41 184.995C122.593 185.325 122.685 186.022 122.685 187.085V187.855C122.685 189.028 122.538 189.78 122.245 190.11C121.988 190.403 121.291 190.55 120.155 190.55H114.325C112.748 190.55 111.85 190.77 111.63 191.21C111.446 191.613 111.556 192.328 111.96 193.355L133.85 247.695C134.583 249.492 135.188 250.812 135.665 251.655C136.178 252.498 136.636 252.92 137.04 252.92C137.443 252.92 137.846 252.553 138.25 251.82C138.69 251.05 139.203 249.95 139.79 248.52ZM191.25 190C191.25 188.167 191.892 186.608 193.175 185.325C194.495 184.042 196.053 183.4 197.85 183.4C199.683 183.4 201.242 184.042 202.525 185.325C203.808 186.608 204.45 188.167 204.45 190C204.45 191.797 203.808 193.355 202.525 194.675C201.242 195.958 199.683 196.6 197.85 196.6C196.053 196.6 194.495 195.958 193.175 194.675C191.892 193.355 191.25 191.797 191.25 190ZM192.13 215.85H184.705C184.155 215.85 183.825 215.777 183.715 215.63C183.605 215.447 183.55 215.08 183.55 214.53V211.23C183.55 210.277 183.99 209.8 184.87 209.8H202.305C202.745 209.8 203.02 209.873 203.13 210.02C203.277 210.167 203.35 210.478 203.35 210.955V259.63C203.35 260.107 203.423 260.455 203.57 260.675C203.753 260.858 204.065 260.95 204.505 260.95H211.93C212.443 260.95 212.792 261.005 212.975 261.115C213.158 261.225 213.25 261.537 213.25 262.05V265.68C213.25 266.193 213.195 266.542 213.085 266.725C213.012 266.908 212.718 267 212.205 267H185.255C184.632 267 184.192 266.927 183.935 266.78C183.678 266.633 183.55 266.267 183.55 265.68V262.6C183.55 261.867 183.678 261.408 183.935 261.225C184.228 261.042 184.705 260.95 185.365 260.95H192.185C192.808 260.95 193.175 260.84 193.285 260.62C193.395 260.4 193.45 259.997 193.45 259.41V217.17C193.45 216.29 193.01 215.85 192.13 215.85ZM219.274 239.5C219.274 233.633 220.246 228.39 222.189 223.77C224.133 219.113 227.048 215.447 230.934 212.77C234.858 210.057 239.771 208.7 245.674 208.7C249.268 208.7 252.384 209.25 255.024 210.35C257.701 211.413 259.956 212.898 261.789 214.805C263.659 216.675 265.163 218.82 266.299 221.24C267.436 223.623 268.261 226.153 268.774 228.83C269.288 231.47 269.544 234.092 269.544 236.695C269.544 237.428 269.398 237.887 269.104 238.07C268.848 238.217 268.334 238.29 267.564 238.29H232.199C231.613 238.29 231.154 238.4 230.824 238.62C230.531 238.84 230.384 239.262 230.384 239.885C230.384 243.918 230.916 247.677 231.979 251.16C233.043 254.643 234.729 257.448 237.039 259.575C239.386 261.665 242.448 262.71 246.224 262.71C250.588 262.71 254.199 261.482 257.059 259.025C259.956 256.568 262.138 253.323 263.604 249.29C263.751 248.887 263.898 248.575 264.044 248.355C264.191 248.098 264.539 247.97 265.089 247.97H268.279C268.829 247.97 269.178 248.062 269.324 248.245C269.471 248.428 269.489 248.722 269.379 249.125C268.353 252.865 266.813 256.165 264.759 259.025C262.706 261.848 260.048 264.067 256.784 265.68C253.521 267.293 249.561 268.1 244.904 268.1C239.368 268.1 234.693 266.798 230.879 264.195C227.066 261.555 224.169 258.072 222.189 253.745C220.246 249.382 219.274 244.633 219.274 239.5ZM232.144 233.56H257.004C257.738 233.56 258.178 233.505 258.324 233.395C258.508 233.285 258.599 233.047 258.599 232.68C258.599 230.847 258.343 228.848 257.829 226.685C257.316 224.485 256.528 222.395 255.464 220.415C254.401 218.398 253.063 216.748 251.449 215.465C249.836 214.182 247.911 213.54 245.674 213.54C242.301 213.54 239.496 214.493 237.259 216.4C235.023 218.307 233.354 220.69 232.254 223.55C231.154 226.41 230.604 229.288 230.604 232.185C230.604 232.735 230.696 233.102 230.879 233.285C231.063 233.468 231.484 233.56 232.144 233.56ZM305.262 252.535L317.747 211.065C317.93 210.515 318.168 210.167 318.462 210.02C318.792 209.873 319.305 209.8 320.002 209.8H322.917C323.687 209.8 324.237 209.873 324.567 210.02C324.933 210.13 325.19 210.478 325.337 211.065L338.152 252.205C338.298 252.682 338.427 253.122 338.537 253.525C338.683 253.892 338.848 254.075 339.032 254.075C339.215 254.075 339.343 253.892 339.417 253.525C339.527 253.122 339.655 252.682 339.802 252.205L349.757 217.445C349.94 216.822 349.958 216.4 349.812 216.18C349.702 215.96 349.262 215.85 348.492 215.85H341.122C340.462 215.85 340.003 215.777 339.747 215.63C339.49 215.483 339.362 215.098 339.362 214.475V211.34C339.362 210.79 339.435 210.405 339.582 210.185C339.728 209.928 340.058 209.8 340.572 209.8H366.037C366.66 209.8 367.027 209.928 367.137 210.185C367.247 210.442 367.302 210.882 367.302 211.505V214.475C367.302 215.025 367.192 215.392 366.972 215.575C366.788 215.758 366.385 215.85 365.762 215.85H358.667C357.787 215.85 357.237 215.923 357.017 216.07C356.833 216.18 356.65 216.583 356.467 217.28L342.222 266.56C342.075 267.147 341.855 267.55 341.562 267.77C341.305 267.99 340.755 268.1 339.912 268.1H335.952C335.218 268.1 334.705 268.008 334.412 267.825C334.155 267.642 333.935 267.275 333.752 266.725L321.432 227.07C321.285 226.557 321.138 226.153 320.992 225.86C320.882 225.53 320.735 225.365 320.552 225.365C320.368 225.365 320.222 225.512 320.112 225.805C320.002 226.062 319.855 226.483 319.672 227.07L307.517 266.505C307.333 267.092 307.113 267.495 306.857 267.715C306.6 267.972 306.05 268.1 305.207 268.1H301.742C300.935 268.1 300.312 268.045 299.872 267.935C299.468 267.825 299.175 267.458 298.992 266.835L282.767 216.95C282.657 216.547 282.473 216.272 282.217 216.125C281.96 215.942 281.575 215.85 281.062 215.85H274.132C273.728 215.85 273.472 215.74 273.362 215.52C273.288 215.3 273.252 214.97 273.252 214.53V211.175C273.252 210.735 273.288 210.405 273.362 210.185C273.472 209.928 273.747 209.8 274.187 209.8H303.722C304.382 209.8 304.803 209.928 304.987 210.185C305.17 210.405 305.262 210.863 305.262 211.56V213.76C305.262 214.53 305.188 215.08 305.042 215.41C304.895 215.703 304.437 215.85 303.667 215.85H294.042C293.455 215.85 293.088 215.923 292.942 216.07C292.795 216.217 292.777 216.492 292.887 216.895L303.612 252.535C303.758 252.975 303.868 253.342 303.942 253.635C304.052 253.928 304.217 254.075 304.437 254.075C304.693 254.075 304.858 253.928 304.932 253.635C305.005 253.342 305.115 252.975 305.262 252.535Z" fill="white"/>
</svg>
