<svg width="391" height="46" viewBox="0 0 391 46" fill="none" xmlns="http://www.w3.org/2000/svg">
<path d="M5.93506 39.4775V6.37451H0.380859V0.852051H16.1548C20.7886 0.852051 24.2586 1.18001 26.5649 1.83594C28.8713 2.49186 30.7967 3.98356 32.3413 6.31104C33.9071 8.61735 34.6899 11.3468 34.6899 14.4995C34.6899 17.0174 34.1715 19.2814 33.1348 21.2915C32.1191 23.2804 30.8496 24.751 29.3262 25.7031C27.8239 26.6553 26.1206 27.3006 24.2163 27.6392C22.3332 27.9565 19.4767 28.1152 15.647 28.1152H12.6001V39.4775H18.313V45H0.380859V39.4775H5.93506ZM12.6001 22.7832H16.4087C20.7463 22.7832 23.7508 22.1696 25.4224 20.9424C27.0939 19.694 27.9297 17.5041 27.9297 14.3726C27.9297 12.3836 27.4854 10.7332 26.5967 9.42139C25.708 8.10954 24.6077 7.27376 23.2959 6.91406C21.984 6.55436 19.7941 6.37451 16.7261 6.37451H12.6001V22.7832ZM43.9575 39.6362V19.6411H37.7686V14.2773H48.7817V21.1963C49.4588 19.3978 50.4004 17.9061 51.6064 16.7212C52.8125 15.5363 54.082 14.7534 55.415 14.3726C56.7692 13.9917 58.61 13.8013 60.9375 13.8013H62.5244V19.895H61.3184C58.2503 19.895 55.9546 20.2018 54.4312 20.8154C52.9289 21.429 51.8075 22.5505 51.0669 24.1797C50.3475 25.7878 49.9878 28.6865 49.9878 32.876V39.6362H56.6846V45H37.7686V39.6362H43.9575ZM63.3179 29.6387C63.3179 24.8991 64.8836 21.0164 68.0151 17.9907C71.1466 14.9438 74.9658 13.4204 79.4727 13.4204C83.8949 13.4204 87.6929 14.9227 90.8667 17.9272C94.0405 20.9106 95.6274 24.8145 95.6274 29.6387C95.6274 34.4629 94.0405 38.3773 90.8667 41.3818C87.714 44.3864 83.916 45.8887 79.4727 45.8887C74.9023 45.8887 71.062 44.3652 67.9517 41.3184C64.8625 38.2715 63.3179 34.3783 63.3179 29.6387ZM69.6973 29.6387C69.6973 32.6644 70.6388 35.1506 72.522 37.0972C74.4263 39.0226 76.7432 39.9854 79.4727 39.9854C82.2445 39.9854 84.5614 39.012 86.4233 37.0654C88.3065 35.0977 89.248 32.6221 89.248 29.6387C89.248 26.6341 88.2959 24.1585 86.3916 22.2119C84.4873 20.2653 82.181 19.292 79.4727 19.292C76.6374 19.292 74.2993 20.2865 72.4585 22.2754C70.6177 24.2643 69.6973 26.7188 69.6973 29.6387ZM129.524 14.2773V25.8936H124.128C123.853 23.6719 122.944 21.9686 121.399 20.7837C119.875 19.5988 118.098 19.0063 116.067 19.0063C113.359 19.0063 111.158 19.9691 109.465 21.8945C107.773 23.7988 106.926 26.3062 106.926 29.4165C106.926 32.3153 107.73 34.8755 109.338 37.0972C110.946 39.2977 113.274 40.3979 116.321 40.3979C120.553 40.3979 123.621 38.3879 125.525 34.3677L130.508 36.7163C127.757 42.8312 122.944 45.8887 116.067 45.8887C111.2 45.8887 107.371 44.2277 104.578 40.9058C101.785 37.5838 100.388 33.7541 100.388 29.4165C100.388 24.7827 101.912 20.9635 104.958 17.959C108.005 14.9333 111.518 13.4204 115.496 13.4204C118.902 13.4204 121.78 14.4255 124.128 16.4355V14.2773H129.524ZM166.848 31.1621H141.013C141.394 33.9974 142.515 36.2931 144.377 38.0493C146.239 39.8055 148.62 40.6836 151.519 40.6836C155.729 40.6836 159.062 38.9909 161.516 35.6055L166.848 37.9541C165.113 40.6413 162.86 42.6408 160.088 43.9526C157.316 45.2433 154.417 45.8887 151.392 45.8887C146.694 45.8887 142.674 44.4287 139.331 41.5088C136.009 38.5677 134.348 34.611 134.348 29.6387C134.348 24.9202 135.967 21.0376 139.204 17.9907C142.463 14.9438 146.197 13.4204 150.408 13.4204C154.534 13.4204 158.268 14.9121 161.611 17.8955C164.976 20.8577 166.721 25.2799 166.848 31.1621ZM160.627 26.7822C160.204 24.624 159.083 22.6774 157.263 20.9424C155.444 19.1862 153.211 18.3081 150.566 18.3081C148.154 18.3081 146.091 19.1016 144.377 20.6885C142.664 22.2542 141.616 24.2855 141.235 26.7822H160.627ZM171.926 45V34.4629H177.322V35.4785C177.512 36.9173 178.285 38.1022 179.639 39.0332C181.014 39.9642 182.633 40.4297 184.495 40.4297C186.441 40.4297 187.996 40.0911 189.16 39.4141C190.324 38.737 190.906 37.7954 190.906 36.5894C190.906 35.4256 190.419 34.5687 189.446 34.0186C188.494 33.4684 186.589 32.9606 183.733 32.4951C179.501 31.7757 176.475 30.6226 174.656 29.0356C172.857 27.4276 171.958 25.354 171.958 22.8149C171.958 20.2547 172.942 18.1177 174.91 16.4038C176.877 14.6688 179.469 13.8013 182.686 13.8013C185.584 13.8013 188.081 14.3937 190.176 15.5786V14.2773H195.54V24.4653H190.176V22.5928C188.547 20.0749 186.177 18.8159 183.066 18.8159C181.479 18.8159 180.168 19.165 179.131 19.8633C178.115 20.5404 177.607 21.4502 177.607 22.5928C177.607 23.7565 178.073 24.5605 179.004 25.0049C179.956 25.4281 181.987 25.883 185.098 26.3696C188.081 26.8351 190.334 27.3853 191.858 28.02C193.381 28.6336 194.64 29.6704 195.635 31.1304C196.65 32.5692 197.158 34.2513 197.158 36.1768C197.158 39.0332 196.058 41.3078 193.857 43.0005C191.678 44.672 188.843 45.5078 185.352 45.5078C182.072 45.5078 179.395 44.7673 177.322 43.2861V45H171.926ZM201.697 45V34.4629H207.092V35.4785C207.283 36.9173 208.055 38.1022 209.409 39.0332C210.785 39.9642 212.403 40.4297 214.265 40.4297C216.212 40.4297 217.767 40.0911 218.931 39.4141C220.094 38.737 220.676 37.7954 220.676 36.5894C220.676 35.4256 220.19 34.5687 219.216 34.0186C218.264 33.4684 216.36 32.9606 213.503 32.4951C209.272 31.7757 206.246 30.6226 204.426 29.0356C202.628 27.4276 201.729 25.354 201.729 22.8149C201.729 20.2547 202.712 18.1177 204.68 16.4038C206.648 14.6688 209.24 13.8013 212.456 13.8013C215.355 13.8013 217.852 14.3937 219.946 15.5786V14.2773H225.31V24.4653H219.946V22.5928C218.317 20.0749 215.947 18.8159 212.837 18.8159C211.25 18.8159 209.938 19.165 208.901 19.8633C207.886 20.5404 207.378 21.4502 207.378 22.5928C207.378 23.7565 207.843 24.5605 208.774 25.0049C209.727 25.4281 211.758 25.883 214.868 26.3696C217.852 26.8351 220.105 27.3853 221.628 28.02C223.152 28.6336 224.411 29.6704 225.405 31.1304C226.421 32.5692 226.929 34.2513 226.929 36.1768C226.929 39.0332 225.828 41.3078 223.628 43.0005C221.449 44.672 218.613 45.5078 215.122 45.5078C211.842 45.5078 209.166 44.7673 207.092 43.2861V45H201.697Z" fill="#F2DA5E"/>
<path d="M260 45.4443L245.178 6.37451H239.719V0.852051H257.144V6.37451H252.034L263.269 36.0181L274.219 6.37451H269.077V0.852051H286.025V6.37451H280.662L266.125 45.4443H260ZM291.897 3.83545C291.897 2.86214 292.236 2.01579 292.913 1.29639C293.611 0.576986 294.489 0.217285 295.547 0.217285C296.541 0.217285 297.398 0.566406 298.118 1.26465C298.837 1.96289 299.197 2.81982 299.197 3.83545C299.197 4.85107 298.837 5.71859 298.118 6.43799C297.398 7.13623 296.541 7.48535 295.547 7.48535C294.531 7.48535 293.664 7.12565 292.944 6.40625C292.246 5.68685 291.897 4.82992 291.897 3.83545ZM292.754 39.6362V19.6411H287.961V14.2773H298.784V39.6362H303.513V45H287.961V39.6362H292.754ZM339.695 31.1621H313.86C314.241 33.9974 315.362 36.2931 317.224 38.0493C319.086 39.8055 321.466 40.6836 324.365 40.6836C328.576 40.6836 331.908 38.9909 334.363 35.6055L339.695 37.9541C337.96 40.6413 335.706 42.6408 332.935 43.9526C330.163 45.2433 327.264 45.8887 324.238 45.8887C319.541 45.8887 315.521 44.4287 312.178 41.5088C308.856 38.5677 307.195 34.611 307.195 29.6387C307.195 24.9202 308.813 21.0376 312.051 17.9907C315.309 14.9438 319.044 13.4204 323.254 13.4204C327.38 13.4204 331.115 14.9121 334.458 17.8955C337.822 20.8577 339.568 25.2799 339.695 31.1621ZM333.474 26.7822C333.051 24.624 331.93 22.6774 330.11 20.9424C328.29 19.1862 326.058 18.3081 323.413 18.3081C321.001 18.3081 318.938 19.1016 317.224 20.6885C315.51 22.2542 314.463 24.2855 314.082 26.7822H333.474ZM352.644 45.5078L344.424 19.6411H340.679V14.2773H353.628V19.6411H349.597L355.469 38.1763L361.34 19.6411H357.976V14.2773H372.83V19.6411H369.465L375.337 38.1763L381.24 19.6411H377.019V14.2773H390.889V19.6411H386.477L378.225 45.5078H372.544L365.498 23.291L358.325 45.5078H352.644Z" fill="white"/>
</svg>
