<svg width="946" height="106" viewBox="0 0 946 106" fill="none" xmlns="http://www.w3.org/2000/svg">
<path d="M12.3897 14.575H3.20971C2.03971 14.575 1.29721 14.4175 0.982207 14.1025C0.667207 13.7875 0.509707 13.045 0.509707 11.875V4.71999C0.509707 3.415 0.712207 2.605 1.11721 2.28999C1.56721 1.92999 2.42221 1.74999 3.68221 1.74999H52.5522C58.6722 1.74999 64.2072 2.35749 69.1572 3.5725C74.1072 4.7425 78.3597 6.5425 81.9147 8.9725C85.5147 11.4025 88.2597 14.485 90.1497 18.22C92.0847 21.955 93.0522 26.365 93.0522 31.45C93.0522 36.49 92.0847 40.9225 90.1497 44.7475C88.2597 48.5725 85.5147 51.745 81.9147 54.265C78.3597 56.785 74.1072 58.675 69.1572 59.935C64.2072 61.195 58.6722 61.825 52.5522 61.825H41.3472C39.6822 61.825 38.6472 62.0275 38.2422 62.4325C37.8822 62.8375 37.7022 63.85 37.7022 65.47V86.395C37.7022 88.06 37.9047 89.1175 38.3097 89.5675C38.7147 89.9725 39.7497 90.175 41.4147 90.175H51.3372C52.5522 90.175 53.2722 90.3775 53.4972 90.7825C53.7672 91.1425 53.9022 91.9525 53.9022 93.2125V99.49C53.9022 100.93 53.7672 101.875 53.4972 102.325C53.2272 102.775 52.3722 103 50.9322 103H3.95221C2.60221 103 1.67971 102.842 1.18471 102.527C0.734707 102.212 0.509707 101.335 0.509707 99.895V92.8075C0.509707 91.6825 0.667207 90.9625 0.982207 90.6475C1.29721 90.3325 2.01721 90.175 3.14221 90.175H11.8497C13.5147 90.175 14.5047 89.9275 14.8197 89.4325C15.1797 88.9375 15.3597 87.925 15.3597 86.395V17.0725C15.3597 15.9025 15.1572 15.205 14.7522 14.98C14.3922 14.71 13.6047 14.575 12.3897 14.575ZM40.8072 49H51.2022C56.6472 49 60.9222 47.4025 64.0272 44.2075C67.1322 41.0125 68.6847 36.76 68.6847 31.45C68.6847 26.095 67.1322 21.955 64.0272 19.03C60.9222 16.06 56.6472 14.575 51.2022 14.575H39.8622C38.8722 14.575 38.2647 14.8 38.0397 15.25C37.8147 15.655 37.7022 16.375 37.7022 17.41V46.03C37.7022 47.335 37.8822 48.1675 38.2422 48.5275C38.6022 48.8425 39.4572 49 40.8072 49ZM113.588 46.3675C113.588 45.2425 113.453 44.5 113.183 44.14C112.958 43.78 112.306 43.6 111.226 43.6H103.666C102.676 43.6 102.046 43.465 101.776 43.195C101.551 42.88 101.438 42.25 101.438 41.305V35.365C101.438 34.33 101.596 33.655 101.911 33.34C102.226 32.98 102.856 32.8 103.801 32.8H130.261C131.071 32.8 131.656 32.935 132.016 33.205C132.376 33.43 132.556 33.9925 132.556 34.8925V41.1025C132.556 42.4075 132.646 43.195 132.826 43.465C133.006 43.735 133.366 43.375 133.906 42.385C135.796 39.055 138.383 36.2875 141.668 34.0825C144.998 31.8775 149.273 30.775 154.493 30.775C159.533 30.775 163.831 32.125 167.386 34.825C170.986 37.48 172.786 41.26 172.786 46.165C172.786 48.28 172.313 50.395 171.368 52.51C170.423 54.58 169.028 56.3125 167.183 57.7075C165.338 59.1025 163.066 59.8 160.366 59.8C157.036 59.8 154.268 58.945 152.063 57.235C149.858 55.525 148.756 53.2975 148.756 50.5525C148.756 48.7075 149.048 47.2675 149.633 46.2325C150.218 45.1975 150.803 44.3875 151.388 43.8025C152.018 43.2175 152.333 42.655 152.333 42.115C152.333 41.62 152.108 41.215 151.658 40.9C151.253 40.585 150.466 40.4275 149.296 40.4275C146.686 40.4275 144.188 41.62 141.803 44.005C139.463 46.345 137.551 49.4725 136.066 53.3875C134.626 57.2575 133.906 61.51 133.906 66.145V89.635C133.906 90.67 134.041 91.3675 134.311 91.7275C134.581 92.0425 135.256 92.2 136.336 92.2H144.233C145.088 92.2 145.606 92.3575 145.786 92.6725C145.966 92.9875 146.056 93.5725 146.056 94.4275V100.57C146.056 101.515 145.943 102.167 145.718 102.527C145.538 102.842 144.998 103 144.098 103H103.868C103.013 103 102.383 102.865 101.978 102.595C101.618 102.325 101.438 101.762 101.438 100.907V94.1575C101.438 93.2575 101.596 92.7175 101.911 92.5375C102.271 92.3125 102.856 92.2 103.666 92.2H110.618C111.743 92.2 112.508 92.065 112.913 91.795C113.363 91.525 113.588 90.85 113.588 89.77V46.3675ZM200.776 66.55C200.776 71.68 201.158 76.4275 201.923 80.7925C202.688 85.1125 204.083 88.6 206.108 91.255C208.133 93.91 211.036 95.2375 214.816 95.2375C217.651 95.2375 219.968 94.495 221.768 93.01C223.613 91.48 225.053 89.4775 226.088 87.0025C227.123 84.4825 227.843 81.6925 228.248 78.6325C228.653 75.5275 228.856 72.4 228.856 69.25C228.856 64.12 228.473 59.395 227.708 55.075C226.943 50.71 225.548 47.2 223.523 44.545C221.498 41.89 218.596 40.5625 214.816 40.5625C211.981 40.5625 209.641 41.3275 207.796 42.8575C205.996 44.3425 204.578 46.345 203.543 48.865C202.508 51.34 201.788 54.13 201.383 57.235C200.978 60.295 200.776 63.4 200.776 66.55ZM178.501 69.5875C178.501 62.3875 179.873 55.8625 182.618 50.0125C185.363 44.1175 189.436 39.4375 194.836 35.9725C200.236 32.5075 206.896 30.775 214.816 30.775C222.736 30.775 229.396 32.44 234.796 35.77C240.196 39.1 244.268 43.4875 247.013 48.9325C249.758 54.3775 251.131 60.25 251.131 66.55C251.131 73.75 249.758 80.2525 247.013 86.0575C244.268 91.8625 240.196 96.475 234.796 99.895C229.396 103.315 222.736 105.025 214.816 105.025C206.896 105.025 200.236 103.405 194.836 100.165C189.436 96.88 185.363 92.5375 182.618 87.1375C179.873 81.7375 178.501 75.8875 178.501 69.5875ZM260.635 68.575C260.635 63.49 261.445 58.6975 263.065 54.1975C264.73 49.6525 267.182 45.625 270.422 42.115C273.662 38.56 277.667 35.7925 282.437 33.8125C287.207 31.7875 292.72 30.775 298.975 30.775C305.365 30.775 310.855 31.765 315.445 33.745C320.08 35.725 323.612 38.3575 326.042 41.6425C328.517 44.8825 329.755 48.3925 329.755 52.1725C329.755 56.4475 328.472 59.6425 325.907 61.7575C323.387 63.8275 320.462 64.8625 317.132 64.8625C313.667 64.8625 310.832 63.895 308.627 61.96C306.467 60.025 305.387 57.4825 305.387 54.3325C305.387 52.3975 305.792 50.9125 306.602 49.8775C307.412 48.7975 308.222 47.8975 309.032 47.1775C309.887 46.4575 310.315 45.6475 310.315 44.7475C310.315 43.3975 309.46 42.295 307.75 41.44C306.04 40.54 303.79 40.09 301 40.09C297.085 40.09 293.822 41.2825 291.212 43.6675C288.602 46.0525 286.622 49.2925 285.272 53.3875C283.967 57.4825 283.315 62.095 283.315 67.225C283.315 71.905 283.787 76.3375 284.732 80.5225C285.722 84.7075 287.342 88.1275 289.592 90.7825C291.887 93.4375 295.037 94.765 299.042 94.765C303.407 94.765 306.985 93.55 309.775 91.12C312.565 88.69 314.792 85.36 316.457 81.13C316.727 80.59 317.02 80.2075 317.335 79.9825C317.695 79.7575 318.28 79.645 319.09 79.645H327.797C328.742 79.645 329.305 79.7575 329.485 79.9825C329.71 80.1625 329.71 80.6125 329.485 81.3325C328.09 86.4175 325.907 90.7375 322.937 94.2925C320.012 97.8025 316.39 100.48 312.07 102.325C307.795 104.125 302.912 105.025 297.422 105.025C289.052 105.025 282.145 103.36 276.7 100.03C271.255 96.655 267.205 92.2 264.55 86.665C261.94 81.13 260.635 75.1 260.635 68.575ZM339.341 69.25C339.341 62.05 340.691 55.5475 343.391 49.7425C346.136 43.9375 350.231 39.325 355.676 35.905C361.166 32.485 367.983 30.775 376.128 30.775C381.573 30.775 386.208 31.5625 390.033 33.1375C393.858 34.7125 396.986 36.8275 399.416 39.4825C401.891 42.0925 403.826 45.0175 405.221 48.2575C406.616 51.4975 407.583 54.8275 408.123 58.2475C408.663 61.6225 408.933 64.84 408.933 67.9C408.933 68.845 408.776 69.4525 408.461 69.7225C408.191 69.9925 407.561 70.1275 406.571 70.1275H363.101C362.246 70.1275 361.706 70.2625 361.481 70.5325C361.256 70.8025 361.166 71.3425 361.211 72.1525C361.346 76.2025 361.931 79.96 362.966 83.425C364.046 86.845 365.756 89.59 368.096 91.66C370.436 93.73 373.563 94.765 377.478 94.765C381.843 94.765 385.421 93.5725 388.211 91.1875C391.046 88.8025 393.318 85.495 395.028 81.265C395.208 80.77 395.411 80.3875 395.636 80.1175C395.906 79.8025 396.423 79.645 397.188 79.645H406.301C407.111 79.645 407.606 79.7575 407.786 79.9825C408.011 80.1625 408.056 80.59 407.921 81.265C406.616 86.395 404.478 90.7375 401.508 94.2925C398.538 97.8025 394.826 100.48 390.371 102.325C385.961 104.125 380.898 105.025 375.183 105.025C367.263 105.025 360.626 103.36 355.271 100.03C349.961 96.7 345.978 92.3125 343.323 86.8675C340.668 81.4225 339.341 75.55 339.341 69.25ZM363.303 60.2725H386.186C387.086 60.2725 387.626 60.205 387.806 60.07C387.986 59.89 388.053 59.4625 388.008 58.7875C387.963 56.7625 387.693 54.67 387.198 52.51C386.703 50.35 385.961 48.37 384.971 46.57C383.981 44.725 382.721 43.24 381.191 42.115C379.661 40.99 377.838 40.4275 375.723 40.4275C372.573 40.4275 369.963 41.2825 367.893 42.9925C365.868 44.7025 364.338 46.9075 363.303 49.6075C362.268 52.2625 361.661 55.12 361.481 58.18C361.436 58.99 361.481 59.5525 361.616 59.8675C361.751 60.1375 362.313 60.2725 363.303 60.2725ZM468.588 55.075C466.698 50.17 463.908 46.5025 460.218 44.0725C456.528 41.6425 452.726 40.4275 448.811 40.4275C445.931 40.4275 443.726 41.1025 442.196 42.4525C440.711 43.8025 439.968 45.49 439.968 47.515C439.968 50.08 440.981 52.1275 443.006 53.6575C445.076 55.1875 447.731 56.47 450.971 57.505C454.211 58.495 457.631 59.53 461.231 60.61C464.876 61.69 468.296 63.0625 471.491 64.7275C474.731 66.3475 477.363 68.5525 479.388 71.3425C481.458 74.0875 482.493 77.6875 482.493 82.1425C482.493 87.4975 481.256 91.885 478.781 95.305C476.351 98.725 473.021 101.245 468.791 102.865C464.561 104.485 459.813 105.295 454.548 105.295C450.093 105.295 446.156 104.62 442.736 103.27C439.316 101.92 436.503 100.367 434.298 98.6125C433.713 98.1175 433.241 97.8925 432.881 97.9375C432.521 97.9375 432.161 98.2975 431.801 99.0175L429.978 102.797C429.708 103.338 429.393 103.72 429.033 103.945C428.718 104.215 428.133 104.35 427.278 104.35H420.731C420.011 104.35 419.538 104.193 419.313 103.878C419.133 103.608 419.043 103.09 419.043 102.325V79.78C419.043 78.97 419.133 78.4075 419.313 78.0925C419.538 77.7775 420.033 77.62 420.798 77.62H427.953C428.943 77.62 429.551 77.755 429.776 78.025C430.001 78.25 430.248 78.7225 430.518 79.4425C431.643 82.9525 433.241 85.8775 435.311 88.2175C437.426 90.5575 439.878 92.3125 442.668 93.4825C445.503 94.6525 448.563 95.2375 451.848 95.2375C455.583 95.2375 458.396 94.4725 460.286 92.9425C462.221 91.3675 463.188 89.2975 463.188 86.7325C463.188 84.0775 462.176 82.0075 460.151 80.5225C458.126 78.9925 455.516 77.7325 452.321 76.7425C449.171 75.7075 445.818 74.6725 442.263 73.6375C438.708 72.5575 435.333 71.185 432.138 69.52C428.988 67.855 426.401 65.6275 424.376 62.8375C422.351 60.0025 421.338 56.29 421.338 51.7C421.338 47.245 422.373 43.4425 424.443 40.2925C426.513 37.0975 429.348 34.6675 432.948 33.0025C436.593 31.3375 440.711 30.505 445.301 30.505C449.891 30.505 453.851 31.225 457.181 32.665C460.556 34.06 463.211 35.6125 465.146 37.3225C465.821 37.9075 466.293 38.245 466.563 38.335C466.833 38.38 467.171 37.9075 467.576 36.9175L469.263 33.0025C469.578 32.3725 469.893 31.9675 470.208 31.7875C470.523 31.5625 471.131 31.45 472.031 31.45H478.376C479.501 31.45 480.063 32.0575 480.063 33.2725V55.21C480.063 55.93 479.951 56.425 479.726 56.695C479.546 56.965 479.073 57.1 478.308 57.1H471.153C470.118 57.1 469.488 56.9425 469.263 56.6275C469.083 56.2675 468.858 55.75 468.588 55.075ZM541.626 55.075C539.736 50.17 536.946 46.5025 533.256 44.0725C529.566 41.6425 525.763 40.4275 521.848 40.4275C518.968 40.4275 516.763 41.1025 515.233 42.4525C513.748 43.8025 513.006 45.49 513.006 47.515C513.006 50.08 514.018 52.1275 516.043 53.6575C518.113 55.1875 520.768 56.47 524.008 57.505C527.248 58.495 530.668 59.53 534.268 60.61C537.913 61.69 541.333 63.0625 544.528 64.7275C547.768 66.3475 550.401 68.5525 552.426 71.3425C554.496 74.0875 555.531 77.6875 555.531 82.1425C555.531 87.4975 554.293 91.885 551.818 95.305C549.388 98.725 546.058 101.245 541.828 102.865C537.598 104.485 532.851 105.295 527.586 105.295C523.131 105.295 519.193 104.62 515.773 103.27C512.353 101.92 509.541 100.367 507.336 98.6125C506.751 98.1175 506.278 97.8925 505.918 97.9375C505.558 97.9375 505.198 98.2975 504.838 99.0175L503.016 102.797C502.746 103.338 502.431 103.72 502.071 103.945C501.756 104.215 501.171 104.35 500.316 104.35H493.768C493.048 104.35 492.576 104.193 492.351 103.878C492.171 103.608 492.081 103.09 492.081 102.325V79.78C492.081 78.97 492.171 78.4075 492.351 78.0925C492.576 77.7775 493.071 77.62 493.836 77.62H500.991C501.981 77.62 502.588 77.755 502.813 78.025C503.038 78.25 503.286 78.7225 503.556 79.4425C504.681 82.9525 506.278 85.8775 508.348 88.2175C510.463 90.5575 512.916 92.3125 515.706 93.4825C518.541 94.6525 521.601 95.2375 524.886 95.2375C528.621 95.2375 531.433 94.4725 533.323 92.9425C535.258 91.3675 536.226 89.2975 536.226 86.7325C536.226 84.0775 535.213 82.0075 533.188 80.5225C531.163 78.9925 528.553 77.7325 525.358 76.7425C522.208 75.7075 518.856 74.6725 515.301 73.6375C511.746 72.5575 508.371 71.185 505.176 69.52C502.026 67.855 499.438 65.6275 497.413 62.8375C495.388 60.0025 494.376 56.29 494.376 51.7C494.376 47.245 495.411 43.4425 497.481 40.2925C499.551 37.0975 502.386 34.6675 505.986 33.0025C509.631 31.3375 513.748 30.505 518.338 30.505C522.928 30.505 526.888 31.225 530.218 32.665C533.593 34.06 536.248 35.6125 538.183 37.3225C538.858 37.9075 539.331 38.245 539.601 38.335C539.871 38.38 540.208 37.9075 540.613 36.9175L542.301 33.0025C542.616 32.3725 542.931 31.9675 543.246 31.7875C543.561 31.5625 544.168 31.45 545.068 31.45H551.413C552.538 31.45 553.101 32.0575 553.101 33.2725V55.21C553.101 55.93 552.988 56.425 552.763 56.695C552.583 56.965 552.111 57.1 551.346 57.1H544.191C543.156 57.1 542.526 56.9425 542.301 56.6275C542.121 56.2675 541.896 55.75 541.626 55.075Z" fill="#F2DA5E"/>
<path d="M666.071 80.32L694.151 12.0775C694.646 10.8175 694.669 10.03 694.219 9.71499C693.814 9.35499 692.666 9.17499 690.776 9.17499H681.191C680.246 9.17499 679.616 9.06249 679.301 8.83749C678.986 8.61249 678.829 8.04999 678.829 7.14999V3.84249C678.829 2.9875 678.941 2.425 679.166 2.15499C679.436 1.88499 679.976 1.74999 680.786 1.74999H714.671C715.616 1.74999 716.179 1.92999 716.359 2.28999C716.539 2.64999 716.629 3.30249 716.629 4.2475V6.74499C716.629 7.59999 716.539 8.22999 716.359 8.63499C716.224 8.99499 715.706 9.17499 714.806 9.17499H705.829C704.344 9.17499 703.354 9.42249 702.859 9.9175C702.409 10.3675 701.981 11.0875 701.576 12.0775L664.384 102.325C664.204 102.82 663.979 103.27 663.709 103.675C663.484 104.125 663.169 104.463 662.764 104.688C662.359 104.913 661.751 105.025 660.941 105.025H658.916C657.566 105.025 656.621 104.823 656.081 104.418C655.586 104.013 655.159 103.36 654.799 102.46L616.661 11.2675C616.301 10.3675 615.964 9.805 615.649 9.58C615.379 9.30999 614.569 9.17499 613.219 9.17499H602.689C601.699 9.17499 601.091 8.99499 600.866 8.63499C600.641 8.275 600.529 7.5775 600.529 6.5425V4.38249C600.529 3.2575 600.686 2.5375 601.001 2.2225C601.316 1.90749 602.014 1.74999 603.094 1.74999H642.514C643.774 1.74999 644.516 1.95249 644.741 2.3575C644.966 2.76249 645.079 3.61749 645.079 4.9225V5.8675C645.079 7.3075 644.899 8.22999 644.539 8.63499C644.224 8.99499 643.369 9.17499 641.974 9.17499H634.819C632.884 9.17499 631.781 9.44499 631.511 9.985C631.286 10.48 631.421 11.3575 631.916 12.6175L658.781 79.3075C659.681 81.5125 660.424 83.1325 661.009 84.1675C661.639 85.2025 662.201 85.72 662.696 85.72C663.191 85.72 663.686 85.27 664.181 84.37C664.721 83.425 665.351 82.075 666.071 80.32ZM729.227 8.49999C729.227 6.25 730.015 4.3375 731.59 2.7625C733.21 1.1875 735.122 0.399993 737.327 0.399993C739.577 0.399993 741.49 1.1875 743.065 2.7625C744.64 4.3375 745.427 6.25 745.427 8.49999C745.427 10.705 744.64 12.6175 743.065 14.2375C741.49 15.8125 739.577 16.6 737.327 16.6C735.122 16.6 733.21 15.8125 731.59 14.2375C730.015 12.6175 729.227 10.705 729.227 8.49999ZM730.307 40.225H721.195C720.52 40.225 720.115 40.135 719.98 39.955C719.845 39.73 719.777 39.28 719.777 38.605V34.555C719.777 33.385 720.317 32.8 721.397 32.8H742.795C743.335 32.8 743.672 32.89 743.807 33.07C743.987 33.25 744.077 33.6325 744.077 34.2175V93.955C744.077 94.54 744.167 94.9675 744.347 95.2375C744.572 95.4625 744.955 95.575 745.495 95.575H754.607C755.237 95.575 755.665 95.6425 755.89 95.7775C756.115 95.9125 756.227 96.295 756.227 96.925V101.38C756.227 102.01 756.16 102.437 756.025 102.662C755.935 102.887 755.575 103 754.945 103H721.87C721.105 103 720.565 102.91 720.25 102.73C719.935 102.55 719.777 102.1 719.777 101.38V97.6C719.777 96.7 719.935 96.1375 720.25 95.9125C720.61 95.6875 721.195 95.575 722.005 95.575H730.375C731.14 95.575 731.59 95.44 731.725 95.17C731.86 94.9 731.927 94.405 731.927 93.685V41.845C731.927 40.765 731.387 40.225 730.307 40.225ZM763.62 69.25C763.62 62.05 764.813 55.615 767.198 49.945C769.583 44.23 773.16 39.73 777.93 36.445C782.745 33.115 788.775 31.45 796.02 31.45C800.43 31.45 804.255 32.125 807.495 33.475C810.78 34.78 813.548 36.6025 815.798 38.9425C818.093 41.2375 819.938 43.87 821.333 46.84C822.728 49.765 823.74 52.87 824.37 56.155C825 59.395 825.315 62.6125 825.315 65.8075C825.315 66.7075 825.135 67.27 824.775 67.495C824.46 67.675 823.83 67.765 822.885 67.765H779.483C778.763 67.765 778.2 67.9 777.795 68.17C777.435 68.44 777.255 68.9575 777.255 69.7225C777.255 74.6725 777.908 79.285 779.213 83.56C780.518 87.835 782.588 91.2775 785.423 93.8875C788.303 96.4525 792.06 97.735 796.695 97.735C802.05 97.735 806.483 96.2275 809.993 93.2125C813.548 90.1975 816.225 86.215 818.025 81.265C818.205 80.77 818.385 80.3875 818.565 80.1175C818.745 79.8025 819.173 79.645 819.848 79.645H823.763C824.438 79.645 824.865 79.7575 825.045 79.9825C825.225 80.2075 825.248 80.5675 825.113 81.0625C823.853 85.6525 821.963 89.7025 819.443 93.2125C816.923 96.6775 813.66 99.4 809.655 101.38C805.65 103.36 800.79 104.35 795.075 104.35C788.28 104.35 782.543 102.753 777.863 99.5575C773.183 96.3175 769.628 92.0425 767.198 86.7325C764.813 81.3775 763.62 75.55 763.62 69.25ZM779.415 61.96H809.925C810.825 61.96 811.365 61.8925 811.545 61.7575C811.77 61.6225 811.883 61.33 811.883 60.88C811.883 58.63 811.568 56.1775 810.938 53.5225C810.308 50.8225 809.34 48.2575 808.035 45.8275C806.73 43.3525 805.088 41.3275 803.108 39.7525C801.128 38.1775 798.765 37.39 796.02 37.39C791.88 37.39 788.438 38.56 785.693 40.9C782.948 43.24 780.9 46.165 779.55 49.675C778.2 53.185 777.525 56.7175 777.525 60.2725C777.525 60.9475 777.638 61.3975 777.863 61.6225C778.088 61.8475 778.605 61.96 779.415 61.96ZM869.15 85.2475L884.473 34.3525C884.698 33.6775 884.99 33.25 885.35 33.07C885.755 32.89 886.385 32.8 887.24 32.8H890.818C891.763 32.8 892.438 32.89 892.843 33.07C893.293 33.205 893.608 33.6325 893.788 34.3525L909.515 84.8425C909.695 85.4275 909.853 85.9675 909.988 86.4625C910.168 86.9125 910.37 87.1375 910.595 87.1375C910.82 87.1375 910.978 86.9125 911.068 86.4625C911.203 85.9675 911.36 85.4275 911.54 84.8425L923.758 42.1825C923.983 41.4175 924.005 40.9 923.825 40.63C923.69 40.36 923.15 40.225 922.205 40.225H913.16C912.35 40.225 911.788 40.135 911.473 39.955C911.158 39.775 911 39.3025 911 38.5375V34.69C911 34.015 911.09 33.5425 911.27 33.2725C911.45 32.9575 911.855 32.8 912.485 32.8H943.738C944.503 32.8 944.953 32.9575 945.088 33.2725C945.223 33.5875 945.29 34.1275 945.29 34.8925V38.5375C945.29 39.2125 945.155 39.6625 944.885 39.8875C944.66 40.1125 944.165 40.225 943.4 40.225H934.693C933.613 40.225 932.938 40.315 932.668 40.495C932.443 40.63 932.218 41.125 931.993 41.98L914.51 102.46C914.33 103.18 914.06 103.675 913.7 103.945C913.385 104.215 912.71 104.35 911.675 104.35H906.815C905.915 104.35 905.285 104.238 904.925 104.013C904.61 103.788 904.34 103.338 904.115 102.662L888.995 53.995C888.815 53.365 888.635 52.87 888.455 52.51C888.32 52.105 888.14 51.9025 887.915 51.9025C887.69 51.9025 887.51 52.0825 887.375 52.4425C887.24 52.7575 887.06 53.275 886.835 53.995L871.918 102.392C871.693 103.112 871.423 103.608 871.108 103.878C870.793 104.193 870.118 104.35 869.083 104.35H864.83C863.84 104.35 863.075 104.283 862.535 104.148C862.04 104.013 861.68 103.563 861.455 102.797L841.543 41.575C841.408 41.08 841.183 40.7425 840.868 40.5625C840.553 40.3375 840.08 40.225 839.45 40.225H830.945C830.45 40.225 830.135 40.09 830 39.82C829.91 39.55 829.865 39.145 829.865 38.605V34.4875C829.865 33.9475 829.91 33.5425 830 33.2725C830.135 32.9575 830.473 32.8 831.013 32.8H867.26C868.07 32.8 868.588 32.9575 868.813 33.2725C869.038 33.5425 869.15 34.105 869.15 34.96V37.66C869.15 38.605 869.06 39.28 868.88 39.685C868.7 40.045 868.138 40.225 867.193 40.225H855.38C854.66 40.225 854.21 40.315 854.03 40.495C853.85 40.675 853.828 41.0125 853.963 41.5075L867.125 85.2475C867.305 85.7875 867.44 86.2375 867.53 86.5975C867.665 86.9575 867.868 87.1375 868.138 87.1375C868.453 87.1375 868.655 86.9575 868.745 86.5975C868.835 86.2375 868.97 85.7875 869.15 85.2475Z" fill="white"/>
</svg>
