<svg width="50" height="50" viewBox="0 0 50 50" fill="none" xmlns="http://www.w3.org/2000/svg">
<path d="M42.6459 4.1668H7.35425C6.95754 4.16129 6.56362 4.23398 6.19501 4.38072C5.82639 4.52746 5.4903 4.74538 5.20591 5.02203C4.92152 5.29868 4.69442 5.62864 4.53756 5.99307C4.38071 6.35749 4.29718 6.74925 4.29175 7.14596V42.8543C4.29718 43.251 4.38071 43.6428 4.53756 44.0072C4.69442 44.3716 4.92152 44.7016 5.20591 44.9782C5.4903 45.2549 5.82639 45.4728 6.19501 45.6195C6.56362 45.7663 6.95754 45.839 7.35425 45.8335H42.6459C43.0426 45.839 43.4365 45.7663 43.8052 45.6195C44.1738 45.4728 44.5099 45.2549 44.7943 44.9782C45.0786 44.7016 45.3057 44.3716 45.4626 44.0072C45.6194 43.6428 45.703 43.251 45.7084 42.8543V7.14596C45.703 6.74925 45.6194 6.35749 45.4626 5.99307C45.3057 5.62864 45.0786 5.29868 44.7943 5.02203C44.5099 4.74538 44.1738 4.52746 43.8052 4.38072C43.4365 4.23398 43.0426 4.16129 42.6459 4.1668ZM16.8542 39.0418H10.6042V20.2918H16.8542V39.0418ZM13.7292 17.6668C12.8673 17.6668 12.0406 17.3244 11.4312 16.7149C10.8217 16.1054 10.4792 15.2787 10.4792 14.4168C10.4792 13.5548 10.8217 12.7282 11.4312 12.1187C12.0406 11.5092 12.8673 11.1668 13.7292 11.1668C14.1869 11.1149 14.6504 11.1602 15.0894 11.2999C15.5284 11.4395 15.9329 11.6703 16.2764 11.9771C16.62 12.2839 16.8949 12.6599 17.0831 13.0803C17.2714 13.5007 17.3687 13.9562 17.3687 14.4168C17.3687 14.8774 17.2714 15.3329 17.0831 15.7533C16.8949 16.1737 16.62 16.5496 16.2764 16.8565C15.9329 17.1633 15.5284 17.3941 15.0894 17.5337C14.6504 17.6733 14.1869 17.7187 13.7292 17.6668ZM39.3959 39.0418H33.1459V28.9793C33.1459 26.4585 32.2501 24.8126 29.9792 24.8126C29.2765 24.8178 28.5921 25.0382 28.0185 25.4442C27.4448 25.8503 27.0094 26.4224 26.7709 27.0835C26.6079 27.5731 26.5372 28.0888 26.5626 28.6043V39.021H20.3126C20.3126 39.021 20.3126 21.9793 20.3126 20.271H26.5626V22.9168C27.1304 21.9316 27.9561 21.12 28.951 20.5693C29.9459 20.0186 31.0721 19.7498 32.2084 19.7918C36.3751 19.7918 39.3959 22.4793 39.3959 28.2501V39.0418Z" fill="black"/>
</svg>
