<svg width="50" height="50" viewBox="0 0 50 50" fill="none" xmlns="http://www.w3.org/2000/svg">
<path d="M25.5149 21.4193H49.6013C49.8671 22.8733 50 24.2622 50 25.5859C50 30.2951 48.9922 34.4998 46.9767 38.1999C44.9612 41.9 42.0875 44.7917 38.3555 46.875C34.6235 48.9583 30.3433 50 25.5149 50C22.0377 50 18.7265 49.3435 15.5814 48.0306C12.4363 46.7177 9.72314 44.9436 7.44186 42.7083C5.16058 40.4731 3.34994 37.8147 2.00997 34.7331C0.669989 31.6515 0 28.4071 0 25C0 21.5929 0.669989 18.3485 2.00997 15.2669C3.34994 12.1853 5.16058 9.52691 7.44186 7.29167C9.72314 5.05642 12.4363 3.28233 15.5814 1.9694C18.7265 0.656467 22.0377 0 25.5149 0C32.1595 0 37.8627 2.18099 42.6246 6.54297L35.6811 13.0859C32.9568 10.5035 29.5681 9.21224 25.5149 9.21224C22.6578 9.21224 20.0166 9.91753 17.5914 11.3281C15.1661 12.7387 13.2447 14.6539 11.8272 17.0736C10.4097 19.4933 9.701 22.1354 9.701 25C9.701 27.8646 10.4097 30.5067 11.8272 32.9264C13.2447 35.3461 15.1661 37.2613 17.5914 38.6719C20.0166 40.0825 22.6578 40.7878 25.5149 40.7878C27.4419 40.7878 29.2137 40.5273 30.8306 40.0065C32.4474 39.4857 33.7763 38.8346 34.8173 38.0534C35.8582 37.2721 36.7663 36.3824 37.5415 35.3841C38.3167 34.3858 38.887 33.4418 39.2525 32.5521C39.6179 31.6623 39.8671 30.816 40 30.013H25.5149V21.4193Z" fill="black"/>
</svg>
